<?xml version="1.0" encoding="utf-8"?>
<!-- Generator: Adobe Illustrator 16.0.0, SVG Export Plug-In . SVG Version: 6.00 Build 0)  -->
<!DOCTYPE svg PUBLIC "-//W3C//DTD SVG 1.1//EN" "http://www.w3.org/Graphics/SVG/1.1/DTD/svg11.dtd">
<svg version="1.1" id="Layer_1" xmlns="http://www.w3.org/2000/svg" xmlns:xlink="http://www.w3.org/1999/xlink" x="0px" y="0px"
	 width="400px" height="400.058px" viewBox="-162.5 -162.529 400 400.058" enable-background="new -162.5 -162.529 400 400.058"
	 xml:space="preserve">
<g>
	<path fill="#BEDFFD" d="M-162.5,37.516c0,110.436,89.56,200.017,200.004,200.012c110.451,0,199.996-89.581,199.996-200.012
		c0-110.459-89.545-200.045-199.996-200.045C-72.94-162.529-162.5-72.943-162.5,37.516z"/>
	<path fill="#FFFFFF" d="M57.421-97.816c0,10.986-8.897,19.904-19.917,19.904c-63.637,0-115.416,51.727-115.416,115.429
		c0,10.973-8.897,19.902-19.907,19.902c-11.004,0-19.901-8.934-19.901-19.902c0-85.606,69.654-155.226,155.229-155.226
		C48.523-117.71,57.421-108.854,57.421-97.816z"/>
</g>
</svg>
