<?xml version="1.0" encoding="UTF-8" standalone="no"?>
<!DOCTYPE svg PUBLIC "-//W3C//DTD SVG 1.1//EN" "http://www.w3.org/Graphics/SVG/1.1/DTD/svg11.dtd">
<svg version="1.1" xmlns="http://www.w3.org/2000/svg" xmlns:xlink="http://www.w3.org/1999/xlink" preserveAspectRatio="xMidYMid meet" viewBox="0 0 644 215" width="644" height="215"><defs><path d="M193.42 107.01C193.42 60.13 155.42 22.1 108.54 22.1C61.67 22.1 23.66 60.13 23.66 107.01C23.66 153.88 61.67 191.9 108.54 191.9C155.42 191.9 193.42 153.88 193.42 107.01Z" id="f1c1CVeBbC"></path><path d="M57.4 110.93C57.4 116.36 52.99 120.79 47.54 120.79C42.08 120.79 37.68 116.36 37.68 110.93C37.68 68.51 72.19 34.02 114.59 34.02C120.04 34.02 124.45 38.41 124.45 43.87C124.45 49.32 120.04 53.74 114.58 53.74C83.05 53.74 57.4 79.36 57.4 110.93Z" id="c66lZotjoD"></path><path d="M272.34 93.39C272.34 98.45 268.23 102.58 263.15 102.58C258.07 102.58 253.96 98.45 253.96 93.39C253.96 53.86 286.12 21.71 325.64 21.71C330.72 21.71 334.83 25.8 334.83 30.89C334.83 35.97 330.72 40.09 325.63 40.09C296.25 40.09 272.34 63.97 272.34 93.39Z" id="bD8xsN2C4"></path><path d="M407.65 104.9C407.65 58.02 369.64 20 322.76 20C275.89 20 237.88 58.02 237.88 104.9C237.88 151.78 275.89 189.8 322.76 189.79C369.64 189.79 407.65 151.77 407.65 104.9Z" id="c6Y3urzmG"></path><path d="M363.27 124.55C367.15 120.74 373.4 120.79 377.22 124.69C381.03 128.58 380.96 134.83 377.08 138.63C346.79 168.33 298 167.83 268.32 137.55C264.5 133.66 264.54 127.44 268.45 123.61C272.33 119.8 278.58 119.85 282.4 123.75C304.47 146.27 340.73 146.65 363.27 124.55Z" id="b1D9lB4Oi"></path><path d="M621.88 108.11C621.88 61.23 583.88 23.21 537 23.21C490.13 23.21 452.12 61.23 452.12 108.11C452.12 154.99 490.13 193 537 193C583.88 193 621.88 154.98 621.88 108.11Z" id="b1Ld9tMYnw"></path><path d="M360 80C360 89.37 354.54 96.97 347.8 96.97C341.06 96.97 335.6 89.37 335.6 80C335.6 70.63 341.06 63.03 347.8 63.03C354.54 63.03 360 70.63 360 80Z" id="aN9jYqSIz"></path><path d="M313.46 86.01C316.86 90.48 323.95 86.78 321.18 81.54C311.3 63.18 282.92 68.42 279.06 88.48C278.44 91.87 282.92 93.11 284.15 89.87C284.15 89.87 284.15 89.87 284.15 89.87C297.93 79.79 307.7 78.5 313.46 86.01Z" id="b5D21T9d99"></path><path d="M560.4 162.55C563.3 162.27 564 157.51 562.5 155.28C562.5 154.58 562.4 153.74 562.1 153.18C551.2 124.39 521.52 129.14 514.82 159.89C514.32 162.83 516.02 166.04 518.12 165.9C532.21 165.06 546.31 164.08 560.4 162.55Z" id="a6CyKKfUT"></path><path d="M513 88.28C511.42 86.08 509.85 83.72 508.43 81.51C507.49 80.25 506.39 79.78 504.81 80.09C504.18 80.25 503.55 80.41 503.24 81.04C503.08 81.2 503.08 81.35 502.92 81.67C502.29 82.61 502.29 84.03 502.92 84.98C504.65 87.49 506.39 90.01 508.12 92.53C505.76 94.42 503.55 96.15 501.19 98.04C497.88 100.72 502.14 106.23 505.76 104.03C508.12 102.45 510.48 100.88 512.68 99.14C513.94 100.88 515.05 102.45 516.31 104.18C518.51 107.33 523.7 104.5 521.5 101.03C520.24 98.99 518.82 97.1 517.56 95.05C520.71 92.22 523.86 89.38 526.85 86.39C530 82.93 524.96 78.05 521.5 81.04C518.67 83.56 515.83 85.92 513 88.28Z" id="d1DLvCPgJR"></path><path d="M565.15 88.28C563.58 86.08 562 83.72 560.59 81.51C559.64 80.25 558.54 79.78 556.97 80.09C556.34 80.25 555.71 80.41 555.39 81.04C555.23 81.2 555.23 81.35 555.08 81.67C554.45 82.61 554.45 84.03 555.08 84.98C556.81 87.49 558.54 90.01 560.27 92.53C557.91 94.42 555.71 96.15 553.34 98.04C550.04 100.72 554.29 106.23 557.91 104.03C560.27 102.45 562.63 100.88 564.84 99.14C566.1 100.88 567.2 102.45 568.46 104.18C570.66 107.33 575.86 104.5 573.65 101.03C572.39 98.99 570.98 97.1 569.72 95.05C572.87 92.22 576.02 89.38 579.01 86.39C582.16 82.93 577.12 78.05 573.65 81.04C570.82 83.56 567.99 85.92 565.15 88.28Z" id="f5Fb6uIYP3"></path></defs><g><g><g><use xlink:href="#f1c1CVeBbC" opacity="1" fill="#2696de" fill-opacity="1"></use><g><use xlink:href="#f1c1CVeBbC" opacity="1" fill-opacity="0" stroke="#000000" stroke-width="1" stroke-opacity="0"></use></g></g><g><use xlink:href="#c66lZotjoD" opacity="1" fill="#ffffff" fill-opacity="1"></use><g><use xlink:href="#c66lZotjoD" opacity="1" fill-opacity="0" stroke="#000000" stroke-width="1" stroke-opacity="0"></use></g></g><g><use xlink:href="#bD8xsN2C4" opacity="1" fill="#ffffff" fill-opacity="1"></use><g><use xlink:href="#bD8xsN2C4" opacity="1" fill-opacity="0" stroke="#000000" stroke-width="1" stroke-opacity="0"></use></g></g><g><use xlink:href="#c6Y3urzmG" opacity="1" fill="#2696de" fill-opacity="1"></use><g><use xlink:href="#c6Y3urzmG" opacity="1" fill-opacity="0" stroke="#000000" stroke-width="1" stroke-opacity="0"></use></g></g><g><use xlink:href="#b1D9lB4Oi" opacity="1" fill="#ffffff" fill-opacity="1"></use><g><use xlink:href="#b1D9lB4Oi" opacity="1" fill-opacity="0" stroke="#000000" stroke-width="1" stroke-opacity="0"></use></g></g><g><use xlink:href="#b1Ld9tMYnw" opacity="1" fill="#2696de" fill-opacity="1"></use><g><use xlink:href="#b1Ld9tMYnw" opacity="1" fill-opacity="0" stroke="#000000" stroke-width="1" stroke-opacity="0"></use></g></g><g><use xlink:href="#aN9jYqSIz" opacity="1" fill="#ffffff" fill-opacity="1"></use><g><use xlink:href="#aN9jYqSIz" opacity="1" fill-opacity="0" stroke="#000000" stroke-width="1" stroke-opacity="0"></use></g></g><g><use xlink:href="#b5D21T9d99" opacity="1" fill="#ffffff" fill-opacity="1"></use><g><use xlink:href="#b5D21T9d99" opacity="1" fill-opacity="0" stroke="#000000" stroke-width="1" stroke-opacity="0"></use></g></g><g><use xlink:href="#a6CyKKfUT" opacity="1" fill="#ffffff" fill-opacity="1"></use><g><use xlink:href="#a6CyKKfUT" opacity="1" fill-opacity="0" stroke="#000000" stroke-width="1" stroke-opacity="0"></use></g></g><g><use xlink:href="#d1DLvCPgJR" opacity="1" fill="#ffffff" fill-opacity="1"></use><g><use xlink:href="#d1DLvCPgJR" opacity="1" fill-opacity="0" stroke="#000000" stroke-width="1" stroke-opacity="0"></use></g></g><g><use xlink:href="#f5Fb6uIYP3" opacity="1" fill="#ffffff" fill-opacity="1"></use><g><use xlink:href="#f5Fb6uIYP3" opacity="1" fill-opacity="0" stroke="#000000" stroke-width="1" stroke-opacity="0"></use></g></g></g></g></svg>