<?xml version="1.0" encoding="UTF-8" standalone="no"?>
<!DOCTYPE svg PUBLIC "-//W3C//DTD SVG 1.1//EN" "http://www.w3.org/Graphics/SVG/1.1/DTD/svg11.dtd">
<svg version="1.1" xmlns="http://www.w3.org/2000/svg" xmlns:xlink="http://www.w3.org/1999/xlink" preserveAspectRatio="xMidYMid meet" viewBox="0 0 640 640" width="640" height="640"><defs><path d="M320.02 640.06C496.73 640.06 640 496.74 640 320.06C640 143.33 496.73 0 320.02 0C143.32 0 0.03 143.33 0.03 320.06C0.03 496.75 143.32 640.07 320.02 640.06Z" id="a49c7nV1d"></path><path d="M320.02 135.38C218.21 135.38 135.36 218.14 135.36 320.06C135.36 337.62 121.13 351.9 103.51 351.9C85.91 351.9 71.67 337.61 71.67 320.06C71.67 183.1 183.12 71.71 320.03 71.71C337.65 71.71 351.89 85.88 351.89 103.54C351.89 121.11 337.65 135.38 320.02 135.38Z" id="d1btIYqK1U"></path></defs><g><g><g><g><use xlink:href="#a49c7nV1d" opacity="1" fill="#2696de" fill-opacity="1"></use><g><use xlink:href="#a49c7nV1d" opacity="1" fill-opacity="0" stroke="#000000" stroke-width="1" stroke-opacity="0"></use></g></g><g><use xlink:href="#d1btIYqK1U" opacity="1" fill="#ffffff" fill-opacity="1"></use><g><use xlink:href="#d1btIYqK1U" opacity="1" fill-opacity="0" stroke="#000000" stroke-width="1" stroke-opacity="0"></use></g></g></g></g></g></svg>