<?xml version="1.0" encoding="UTF-8" standalone="no"?>
<!DOCTYPE svg PUBLIC "-//W3C//DTD SVG 1.1//EN" "http://www.w3.org/Graphics/SVG/1.1/DTD/svg11.dtd">
<svg version="1.1" xmlns="http://www.w3.org/2000/svg" xmlns:xlink="http://www.w3.org/1999/xlink" preserveAspectRatio="xMidYMid meet" viewBox="0 0 640 640" width="640" height="640"><defs><path d="M320.02 640.06C496.73 640.06 640 496.74 640 320.06C640 143.33 496.73 0 320.02 0C143.32 0 0.03 143.33 0.03 320.06C0.03 496.75 143.32 640.07 320.02 640.06Z" id="b1hH7NtoLQ"></path><path d="M342.8 119.24C223.94 119.24 127.23 215.85 127.23 334.83C127.23 355.32 110.62 372 90.05 372C69.5 372 52.88 355.31 52.88 334.83C52.88 174.94 182.98 44.91 342.81 44.91C363.38 44.91 380 61.45 380 82.06C380 102.58 363.38 119.24 342.8 119.24Z" id="c1RMoyzVI2"></path></defs><g><g><g><use xlink:href="#b1hH7NtoLQ" opacity="1" fill="#2696de" fill-opacity="1"></use><g><use xlink:href="#b1hH7NtoLQ" opacity="1" fill-opacity="0" stroke="#000000" stroke-width="1" stroke-opacity="0"></use></g></g><g><use xlink:href="#c1RMoyzVI2" opacity="0.49" fill="#ffffff" fill-opacity="1"></use><g><use xlink:href="#c1RMoyzVI2" opacity="0.49" fill-opacity="0" stroke="#2696de" stroke-width="30" stroke-opacity="1"></use></g></g></g></g></svg>